<svg xmlns="http://www.w3.org/2000/svg" xmlns:xlink="http://www.w3.org/1999/xlink" width="38" height="37" viewBox="0 0 38 37">
  <defs>
    <style>
      .cls-1 {
        clip-path: url(#clip-iPhone_12_Pro_Max_1);
      }

      .cls-2 {
        fill: none;
        stroke: #FF7D89;
        stroke-linecap: round;
        stroke-linejoin: round;
        stroke-width: 3px;
      }
    </style>
    <clipPath id="clip-iPhone_12_Pro_Max_1">
      <rect width="38" height="37"/>
    </clipPath>
  </defs>
  <g id="iPhone_12_Pro_Max_1" data-name="iPhone 12 Pro Max – 1" class="cls-1">
    <g id="Icon_feather-shopping-cart" data-name="Icon feather-shopping-cart" transform="translate(1 1.5)">
      <path id="Trazado_1" data-name="Trazado 1" class="cls-2" d="M15,31.5A1.5,1.5,0,1,1,13.5,30,1.5,1.5,0,0,1,15,31.5Z"/>
      <path id="Trazado_2" data-name="Trazado 2" class="cls-2" d="M31.5,31.5A1.5,1.5,0,1,1,30,30,1.5,1.5,0,0,1,31.5,31.5Z"/>
      <path id="Trazado_3" data-name="Trazado 3" class="cls-2" d="M1.5,1.5h6l4.02,20.085a3,3,0,0,0,3,2.415H29.1a3,3,0,0,0,3-2.415L34.5,9H9"/>
    </g>
  </g>
</svg>
