<?xml version="1.0" encoding="utf-8"?>
<!-- Generator: Adobe Illustrator 25.3.1, SVG Export Plug-In . SVG Version: 6.00 Build 0)  -->
<svg version="1.1" id="Capa_1" xmlns="http://www.w3.org/2000/svg" xmlns:xlink="http://www.w3.org/1999/xlink" x="0px" y="0px"
	 viewBox="0 0 38 37" style="enable-background:new 0 0 38 37;" xml:space="preserve">
<style type="text/css">
	.st0{clip-path:url(#SVGID_2_);}
	.st1{fill:none;stroke:#020202;stroke-width:3;stroke-linecap:round;stroke-linejoin:round;}
</style>
<g>
	<defs>
		<rect id="SVGID_1_" y="0" width="38" height="37"/>
	</defs>
	<clipPath id="SVGID_2_">
		<use xlink:href="#SVGID_1_"  style="overflow:visible;"/>
	</clipPath>
	<g id="iPhone_12_Pro_Max_1" class="st0">
		<g id="Icon_feather-shopping-cart" transform="translate(1 1.5)">
			<path id="Trazado_1" class="st1" d="M15,31.5c0,0.8-0.7,1.5-1.5,1.5S12,32.3,12,31.5s0.7-1.5,1.5-1.5l0,0
				C14.3,30,15,30.7,15,31.5z"/>
			<path id="Trazado_2" class="st1" d="M31.5,31.5c0,0.8-0.7,1.5-1.5,1.5s-1.5-0.7-1.5-1.5S29.2,30,30,30l0,0
				C30.8,30,31.5,30.7,31.5,31.5z"/>
			<path id="Trazado_3" class="st1" d="M1.5,1.5h6l4,20.1c0.3,1.4,1.5,2.4,3,2.4h14.6c1.5,0,2.7-1,3-2.4L34.5,9H9"/>
		</g>
	</g>
</g>
</svg>
