<svg xmlns="http://www.w3.org/2000/svg" width="117.217" height="108.86" viewBox="0 0 117.217 108.86">
  <path id="Icon_ionic-md-brush" data-name="Icon ionic-md-brush" d="M33.1,69.9A18.3,18.3,0,0,0,14.6,88.029c0,7.928-7.143,12.088-12.35,12.088a32.075,32.075,0,0,0,24.674,12.114A24.431,24.431,0,0,0,51.6,88.055,18.31,18.31,0,0,0,33.1,69.9Zm84.566-56.648L109.4,5.138a6.224,6.224,0,0,0-8.687,0L45.423,59.326,62.378,75.941l55.261-54.162A5.918,5.918,0,0,0,117.665,13.249Z" transform="translate(-2.25 -3.371)" fill="#fdbbc9"/>
</svg>
