<svg id="Capa_1" data-name="Capa 1" xmlns="http://www.w3.org/2000/svg" viewBox="0 0 133.88 133.96"><defs><style>.cls-1{fill:#fdbbc9;}</style></defs><path id="Icon_awesome-recycle" data-name="Icon awesome-recycle" class="cls-1" d="M48.29,68.53A4.19,4.19,0,0,1,42,73L31.33,66.36,18,87.66a8.38,8.38,0,0,0,7.1,12.81h13.6a3.14,3.14,0,0,1,3.14,3.14v10.47a3.14,3.14,0,0,1-3.14,3.14H25.15A25.13,25.13,0,0,1,3.85,78.79l13.3-21.3L6.49,50.83a4.18,4.18,0,0,1,1.28-7.62l28.84-6.66a4.18,4.18,0,0,1,5,3.13h0l6.66,28.85ZM74.08,20.67,84.88,38,74.22,44.62a4.19,4.19,0,0,0,1.28,7.63l28.84,6.65a4.17,4.17,0,0,0,5-3.13h0L116,26.92a4.19,4.19,0,0,0-3.14-5,4.27,4.27,0,0,0-3.16.53L99.08,29.08,88.28,11.79a25.13,25.13,0,0,0-42.6,0L41,19.32a3.14,3.14,0,0,0,1,4.33l8.87,5.54a3.13,3.13,0,0,0,4.33-1h0l4.7-7.52a8.38,8.38,0,0,1,14.2,0Zm56,58.12-7.2-11.53a3.14,3.14,0,0,0-4.33-1h0l-8.86,5.54a3.14,3.14,0,0,0-1,4.33h0l7.21,11.54a8.38,8.38,0,0,1-7.1,12.81H83.73V87.92a4.19,4.19,0,0,0-7.15-3L55.65,105.89a4.19,4.19,0,0,0,0,5.92h0l20.93,20.93a4.19,4.19,0,0,0,7.15-3V117.22h25.08a25.14,25.14,0,0,0,21.31-38.43Z" transform="translate(-0.04 0)"/></svg>
