<svg id="Capa_1" data-name="Capa 1" xmlns="http://www.w3.org/2000/svg" viewBox="0 0 117.22 108.86"><defs><style>.cls-1{fill:#fdbbc9;}</style></defs><path id="Icon_ionic-md-brush" data-name="Icon ionic-md-brush" class="cls-1" d="M30.85,66.53a18.3,18.3,0,0,0-18.5,18.1v0c0,7.93-7.14,12.09-12.35,12.09a32.09,32.09,0,0,0,24.67,12.11A24.43,24.43,0,0,0,49.35,84.68,18.31,18.31,0,0,0,30.89,66.53ZM115.42,9.88l-8.27-8.11a6.22,6.22,0,0,0-8.69,0L43.17,56l17,16.61,55.26-54.16a5.92,5.92,0,0,0,.19-8.37c-.06,0-.11-.11-.16-.16Z" transform="translate(0 0)"/></svg>