<svg id="Capa_1" data-name="Capa 1" xmlns="http://www.w3.org/2000/svg" viewBox="0 0 34.36 34.37"><path d="M20,2.82c2.3,0,4.61,0,6.91,0a10.05,10.05,0,0,1,10,8,10.59,10.59,0,0,1,.21,2.25q0,6.89,0,13.76a10.09,10.09,0,0,1-8.79,10.21,6.7,6.7,0,0,1-1.1.07c-4.85,0-9.69.06-14.54,0a10,10,0,0,1-9.69-8,11.06,11.06,0,0,1-.21-2.3q0-6.85,0-13.71A10.09,10.09,0,0,1,11.59,2.91a11.52,11.52,0,0,1,1.76-.08Zm14,17.2c0-2.33,0-4.65,0-7A6.94,6.94,0,0,0,27,6H13.08A6.94,6.94,0,0,0,6,13.07Q5.94,20,6,27A7,7,0,0,0,13,34.05q6.95,0,13.88,0a6.94,6.94,0,0,0,7.13-7.12C34.06,24.62,34.05,22.32,34.05,20Z" transform="translate(-2.82 -2.81)"/><path d="M10.62,20A9.38,9.38,0,1,1,20,29.38,9.44,9.44,0,0,1,10.62,20ZM20,26.24A6.24,6.24,0,1,0,13.76,20,6.21,6.21,0,0,0,20,26.24Z" transform="translate(-2.82 -2.81)"/><path d="M29.25,9.37a1.4,1.4,0,1,1-.07,2.8,1.4,1.4,0,0,1,.07-2.8Z" transform="translate(-2.82 -2.81)"/></svg>