<svg id="Capa_1" data-name="Capa 1" xmlns="http://www.w3.org/2000/svg" viewBox="0 0 18.53 34.27"><path d="M28.58,2.74a.86.86,0,0,1,.56.91c0,1.61,0,3.22,0,4.82,0,.67-.24.9-.92.9-1.13,0-2.27,0-3.41.06a1.59,1.59,0,0,0-1.51.81,2.29,2.29,0,0,0-.26,1c0,1.27,0,2.54,0,3.86h5c.69,0,.93.24.93.92,0,1.74,0,3.48,0,5.22,0,.65-.24.89-.89.89H23V36c0,.79-.22,1-1,1H16.71c-.69,0-.92-.23-.92-.92,0-4.52,0-9,0-13.55v-.45h-4.3c-.62,0-.87-.24-.87-.87V15.93c0-.62.26-.87.88-.87h4.29c0-.15,0-.26,0-.38,0-1.39,0-2.77,0-4.15a8.25,8.25,0,0,1,2-5.27A7.34,7.34,0,0,1,22,3c.39-.08.78-.14,1.18-.21Z" transform="translate(-10.62 -2.74)"/></svg>