<svg id="Capa_1" data-name="Capa 1" xmlns="http://www.w3.org/2000/svg" viewBox="0 0 34.19 34.37"><path d="M3.26,37.19c.25-.91.46-1.73.69-2.55.53-2,1.08-3.92,1.6-5.89A1.11,1.11,0,0,0,5.46,28a17,17,0,1,1,18.42,8.53,16.65,16.65,0,0,1-11.13-1.49,1.26,1.26,0,0,0-.95-.11Zm4.09-4.07c.2,0,.33-.06.46-.1,1.43-.37,2.86-.72,4.28-1.13a1.38,1.38,0,0,1,1.17.16A13.94,13.94,0,0,0,23,33.77a14.14,14.14,0,1,0-8.59-26.7,13.59,13.59,0,0,0-8.1,11.78,13.47,13.47,0,0,0,2.18,8.63,1.05,1.05,0,0,1,.13.94C8.21,30,7.79,31.49,7.35,33.12Z" transform="translate(-3.26 -2.81)"/><path d="M24.81,28a10.44,10.44,0,0,1-4.45-1.37,18,18,0,0,1-8-8.24,4.87,4.87,0,0,1,.94-5.93,2.51,2.51,0,0,1,2.36-.42,1.26,1.26,0,0,1,.47.57c.48,1.09.95,2.18,1.37,3.3a1.06,1.06,0,0,1,0,.8,9.11,9.11,0,0,1-1,1.36.72.72,0,0,0-.09,1,11.69,11.69,0,0,0,5.82,5,.68.68,0,0,0,.89-.21c.42-.53.86-1,1.26-1.58a.67.67,0,0,1,.88-.27c1.2.56,2.4,1.12,3.58,1.72a.87.87,0,0,1,.29.63c.07,2.16-1.49,3.26-3.39,3.64A6.7,6.7,0,0,1,24.81,28Z" transform="translate(-3.26 -2.81)"/></svg>